<?xml version="1.0" encoding="UTF-8"?>
<svg version="1.1" xmlns="http://www.w3.org/2000/svg" width="1024" height="1024">
<path d="M0 0 C337.92 0 675.84 0 1024 0 C1024 337.92 1024 675.84 1024 1024 C686.08 1024 348.16 1024 0 1024 C0 686.08 0 348.16 0 0 Z " fill="#24475D" transform="translate(0,0)"/>
<path d="M0 0 C1.95610388 -0.01472144 1.95610388 -0.01472144 3.95172501 -0.02974027 C5.39199307 -0.02040187 6.83225872 -0.01068633 8.27252197 -0.00063419 C9.80785512 -0.00452771 11.34318467 -0.01016856 12.87850571 -0.01740509 C17.0948797 -0.03217059 21.31088064 -0.02197211 25.52724266 -0.00766838 C30.07537047 0.00343133 34.62344552 -0.00849787 39.17156982 -0.01751041 C48.08030401 -0.03145171 56.98889656 -0.02388013 65.89762402 -0.00883483 C76.26955372 0.00801557 86.64144804 0.00481623 97.0133872 0.00107109 C115.51808838 -0.00480912 134.02272153 0.00937041 152.52740479 0.03401852 C170.48836822 0.05793975 188.44924078 0.06502297 206.41021729 0.05452633 C225.96283996 0.04312 245.51542059 0.04118354 265.06804276 0.05562443 C267.15251922 0.05715028 269.23699569 0.05867064 271.32147217 0.06018543 C272.34710699 0.06094325 273.37274181 0.06170106 274.42945647 0.06248184 C281.66129032 0.06722687 288.8931054 0.06537168 296.12493896 0.06112003 C304.93667596 0.05619607 313.74832699 0.0621657 322.56004429 0.08201433 C327.05696233 0.09189379 331.55374939 0.09698439 336.05067444 0.08912182 C340.16618933 0.08207328 344.28143975 0.08885019 348.39691973 0.10672545 C349.88673803 0.11077532 351.37658037 0.10976103 352.86638975 0.10320658 C354.89012546 0.09506427 356.91391237 0.10715706 358.93762207 0.12025452 C360.06213902 0.12128365 361.18665596 0.12231278 362.34524918 0.12337309 C365.97462654 0.56165302 368.36029482 1.59696002 371.46881104 3.50057125 C373.54419728 6.61365062 373.71653255 7.2640532 373.69586182 10.78841305 C373.69571075 11.64907879 373.69555969 12.50974453 373.69540405 13.39649105 C373.68508148 14.3215797 373.67475891 15.24666836 373.66412354 16.19979 C373.65987869 17.62506763 373.65987869 17.62506763 373.6555481 19.07913876 C373.64434819 22.1155774 373.61924391 25.15172167 373.59381104 28.18807125 C373.58378099 30.2460097 373.57465518 32.30395277 373.56646729 34.36189938 C373.54440946 39.40823685 373.50988085 44.45435413 373.46881104 49.50057125 C374.07499268 49.5568066 374.68117432 49.61304195 375.3057251 49.67098141 C376.10719971 49.75138668 376.90867432 49.83179195 377.73443604 49.91463375 C378.922146 50.02992428 378.922146 50.02992428 380.1338501 50.14754391 C385.34011883 50.93468993 390.18038604 53.51166898 394.46881104 56.50057125 C394.46881104 57.16057125 394.46881104 57.82057125 394.46881104 58.50057125 C395.08498291 58.59209469 395.70115479 58.68361813 396.33599854 58.777915 C398.46881104 59.50057125 398.46881104 59.50057125 399.66412354 61.0669775 C399.97092041 61.72568844 400.27771729 62.38439938 400.59381104 63.06307125 C400.90576416 63.70373531 401.21771729 64.34439938 401.53912354 65.0044775 C404.06222853 71.77869638 404.76693214 77.91702565 404.75933838 85.07845211 C404.7660556 86.00150646 404.77277283 86.92456081 404.7796936 87.87558651 C404.7985825 90.90558513 404.80259283 93.93536129 404.80474854 96.965415 C404.81118151 99.08476507 404.81791024 101.20411425 404.82492065 103.32346249 C404.83686971 107.7574383 404.84060379 112.19133634 404.8394165 116.62532711 C404.83921316 122.2922075 404.86654227 127.9585873 404.90096092 133.62534904 C404.9232508 137.99982631 404.92725344 142.37418335 404.92619705 146.74871159 C404.92854881 148.83739673 404.93734825 150.92608539 404.95286179 153.01471424 C404.97256902 155.94126065 404.96666557 158.86673024 404.95465088 161.79329586 C404.96588989 162.64604092 404.97712891 163.49878597 404.9887085 164.37737179 C404.90169262 172.76437517 401.61187898 180.07413494 396.42974854 186.63729 C391.4969691 191.32441309 385.13234981 194.68142531 378.269104 194.56502438 C377.01500732 194.54375484 375.76091064 194.52248531 374.46881104 194.50057125 C374.46821395 195.21598636 374.46761686 195.93140148 374.46700168 196.66849583 C374.43112632 239.04738798 374.37451602 281.4262081 374.29089008 323.80503423 C374.28087234 328.89080214 374.27102826 333.97657037 374.2612915 339.06233883 C374.25837944 340.58109911 374.25837944 340.58109911 374.25540856 342.13054142 C374.22436728 358.53597119 374.20740197 374.94138697 374.19561681 391.34684058 C374.18321627 408.1739194 374.15573971 425.00092461 374.11419797 441.82795697 C374.08903112 452.21544947 374.07569608 462.60281995 374.07738146 472.99034337 C374.07741116 480.10849444 374.06282857 487.22652101 374.03664675 494.34462359 C374.02196439 498.45458662 374.01382883 502.56429433 374.02300835 506.67427921 C374.03126681 510.43541383 374.02121972 514.19603439 373.99647442 517.95709256 C373.98806108 519.96554311 373.999361 521.97404617 374.01130939 523.9824788 C373.9998618 525.17330514 373.98841421 526.36413148 373.97661972 527.59104347 C373.97510084 528.61894641 373.97358196 529.64684934 373.97201705 530.70590085 C373.33534436 534.24180914 371.92462117 535.9275674 369.46881104 538.50057125 C366.57355401 539.94819976 364.06723247 539.63013366 360.83076668 539.63479233 C360.13742416 539.63714456 359.44408165 539.63949679 358.72972876 539.6419203 C356.38314806 539.64863028 354.03662247 539.64815148 351.69003296 539.64774227 C349.99998861 539.65103964 348.30994504 539.65476494 346.61990249 539.65888375 C341.9574972 539.66892608 337.29510477 539.67262411 332.63269019 539.67527306 C327.61146478 539.67916944 322.59024964 539.68874813 317.56903076 539.69748592 C305.43477818 539.71726787 293.30052474 539.72731814 281.16626006 539.73621371 C275.45756876 539.74059325 269.7488784 539.74596087 264.04018784 539.75120258 C245.07336431 539.76821559 226.10654137 539.78271142 207.13971138 539.78995132 C202.21539433 539.79186134 197.29107729 539.79378165 192.36676025 539.79573727 C191.14278844 539.79622101 189.91881663 539.79670475 188.65775476 539.79720315 C168.81478566 539.80550963 148.97187673 539.83085665 129.12893392 539.86331794 C108.77506671 539.89634475 88.42123012 539.91439606 68.06733596 539.91759557 C56.63182908 539.91976459 45.19640995 539.92857052 33.76092911 539.95405674 C24.02531541 539.9757039 14.28981078 539.98384373 4.55417575 539.97408996 C-0.41642301 539.969528 -5.38679643 539.97154097 -10.35736465 539.9908514 C-14.90349584 540.00836105 -19.44923528 540.00758554 -23.99536993 539.99195411 C-25.64409651 539.98955937 -27.29284937 539.99399721 -28.94153558 540.00578276 C-31.17532754 540.02076778 -33.40770716 540.01132443 -35.64146233 539.99555588 C-36.88434198 539.99653269 -38.12722164 539.9975095 -39.40776432 539.9985159 C-43.15041135 539.40185317 -44.30765101 538.52416079 -46.53118896 535.50057125 C-47.78215786 532.31496884 -47.65549817 529.14095926 -47.65423679 525.74532604 C-47.65622784 524.56345754 -47.65821889 523.38158904 -47.66027027 522.16390634 C-47.65735743 520.86430813 -47.65444459 519.56470992 -47.65144348 518.22572994 C-47.65187946 516.8322198 -47.65275487 515.43870974 -47.65403265 514.04520011 C-47.65627232 510.21189668 -47.6522635 506.37862111 -47.64725459 502.54532123 C-47.64294273 498.41311026 -47.64439703 494.2809009 -47.64515686 490.14868832 C-47.64568163 482.98799676 -47.64253974 475.82731429 -47.63691902 468.66662502 C-47.62879765 458.31342521 -47.62618815 447.9602298 -47.62493103 437.60702714 C-47.62274152 420.81030888 -47.61608415 404.01359547 -47.60662842 387.21687984 C-47.59745171 370.89884624 -47.59037214 354.58081395 -47.58612061 338.26277828 C-47.58572652 336.75442836 -47.58572652 336.75442836 -47.58532447 335.21560672 C-47.58401945 330.17105725 -47.58275574 325.12650778 -47.58151257 320.08195829 C-47.57114309 278.22149257 -47.55352749 236.36103219 -47.53118896 194.50057125 C-48.79503418 194.51426754 -50.05887939 194.52796383 -51.36102295 194.54207516 C-58.85289671 194.62326458 -65.5468394 191.3406407 -70.99603271 186.277915 C-75.70792868 180.82266649 -78.64089468 174.62980803 -78.67163086 167.3976202 C-78.677341 166.58895504 -78.68305115 165.78028988 -78.68893433 164.94711971 C-78.69005219 164.06861858 -78.69117004 163.19011745 -78.69232178 162.28499508 C-78.69728668 161.35277126 -78.70225159 160.42054745 -78.70736694 159.46007442 C-78.7219713 156.37590959 -78.72878848 153.29179623 -78.73431396 150.2076025 C-78.74006778 148.06011612 -78.74582549 145.91262975 -78.75158691 143.76514339 C-78.76209265 139.2602022 -78.76793781 134.75527883 -78.77142334 130.25032711 C-78.77690058 124.49151206 -78.80091411 118.73293433 -78.82939529 112.97419357 C-78.84806653 108.53624451 -78.85322971 104.09835203 -78.85475922 99.66036701 C-78.85777722 97.53819325 -78.86577684 95.41602029 -78.8789444 93.29388523 C-78.89609506 90.3167828 -78.89410236 87.34025255 -78.88763428 84.36312008 C-78.89684906 83.4947401 -78.90606384 82.62636013 -78.91555786 81.73166561 C-78.85833967 73.27848023 -76.91330173 66.38743115 -71.28118896 59.93807125 C-70.48712646 59.01896969 -69.69306396 58.09986813 -68.87493896 57.152915 C-67.71478271 55.84000484 -67.71478271 55.84000484 -66.53118896 54.50057125 C-65.88150146 53.71811031 -65.23181396 52.93564938 -64.56243896 52.1294775 C-60.15301356 46.85944056 -60.15301356 46.85944056 -57.27728271 45.19979 C-52.78881249 42.42242933 -49.22416767 38.62797429 -45.43939209 34.97518063 C-44.53543701 34.1156982 -44.53543701 34.1156982 -43.61322021 33.2388525 C-43.06899414 32.71331783 -42.52476807 32.18778316 -41.96405029 31.6463232 C-40.53118896 30.50057125 -40.53118896 30.50057125 -38.53118896 30.50057125 C-38.53118896 29.84057125 -38.53118896 29.18057125 -38.53118896 28.50057125 C-36.92181396 26.84432125 -36.92181396 26.84432125 -34.78118896 25.00057125 C-34.08509521 24.39213375 -33.38900146 23.78369625 -32.67181396 23.15682125 C-30.53118896 21.50057125 -30.53118896 21.50057125 -28.34368896 20.41463375 C-25.98915362 19.22721722 -25.49008262 17.89780539 -24.53118896 15.50057125 C-23.87118896 15.50057125 -23.21118896 15.50057125 -22.53118896 15.50057125 C-22.15220459 14.6188525 -22.15220459 14.6188525 -21.76556396 13.71932125 C-20.38647397 11.24045063 -18.9339745 9.83627985 -16.78118896 8.00057125 C-16.12634521 7.43338375 -15.47150146 6.86619625 -14.79681396 6.28182125 C-9.79202232 2.34701954 -6.51629699 0.00062199 0 0 Z " fill="#183A4A" transform="translate(345.53118896484375,232.49942874908447)"/>
<path d="M0 0 C0.71930756 -0.00581376 1.43861511 -0.01162753 2.17971987 -0.01761746 C4.59088602 -0.03221962 7.00103451 -0.01833198 9.4121933 -0.00457001 C11.15789132 -0.00917885 12.90358547 -0.01553166 14.64927149 -0.02347898 C19.44710289 -0.0401977 24.24461659 -0.03191437 29.04244924 -0.01953411 C34.21635305 -0.01049636 39.39020164 -0.02444702 44.56409454 -0.0354538 C54.70005404 -0.05325722 64.83589517 -0.0493909 74.97185934 -0.03780323 C83.20823157 -0.02877636 91.44457059 -0.02754168 99.68094635 -0.0318985 C100.85237888 -0.03251143 102.02381141 -0.03312436 103.23074189 -0.03375587 C105.61034931 -0.03503475 107.98995672 -0.0363316 110.36956412 -0.03764623 C132.69268253 -0.04905738 155.01573528 -0.03592994 177.33884293 -0.01444477 C196.50065504 0.00342668 215.66237024 0.00032272 234.8241806 -0.01811981 C257.06642869 -0.03951708 279.3086192 -0.04795869 301.55087614 -0.03567076 C303.92181872 -0.03439654 306.29276132 -0.03313905 308.66370392 -0.0318985 C309.83030836 -0.0312814 310.99691281 -0.03066429 312.1988689 -0.03002849 C320.4270803 -0.02657216 328.65525524 -0.03241004 336.883461 -0.04181671 C346.90842648 -0.05302535 356.93326665 -0.05002051 366.95821774 -0.02869374 C372.07489618 -0.01816808 377.19136555 -0.01408734 382.30804253 -0.02729034 C386.98983371 -0.03918863 391.67122156 -0.03269407 396.35297602 -0.01138014 C398.04871588 -0.00690319 399.74448964 -0.00920478 401.44020778 -0.01888329 C403.74217564 -0.03101658 406.04275528 -0.01860494 408.34465027 0 C410.26381453 0.00097411 410.26381453 0.00097411 412.22174978 0.00196791 C417.31843362 0.74255751 420.32915539 3.24620325 424.0149765 6.69600677 C426.34551674 10.64367364 426.23372565 13.91343317 426.18990326 18.42108917 C426.20041718 19.75372047 426.20041718 19.75372047 426.21114349 21.11327362 C426.22872054 24.04440498 426.21710071 26.97456745 426.20357513 29.90570831 C426.20627037 31.94685298 426.21015305 33.98799639 426.21517181 36.02913666 C426.22106668 40.30541975 426.21250503 44.58136842 426.19380951 48.85761261 C426.17103461 54.33324823 426.1841341 59.80809897 426.20809937 65.28370571 C426.22256989 69.49854673 426.21794531 73.71320242 426.2075882 77.92804909 C426.20492364 79.94662888 426.20818113 81.96522561 426.21750641 83.98378563 C426.22769089 86.80839054 426.21214363 89.63173419 426.18990326 92.45624542 C426.19800018 93.28708649 426.20609711 94.11792755 426.21443939 94.97394562 C426.1376868 100.24845929 425.31819095 103.42266309 421.67232513 107.50336456 C417.09117535 110.29915818 413.65929843 110.87940401 408.3290329 110.8836813 C407.60803697 110.88834122 406.88704104 110.89300113 406.14419675 110.89780226 C403.72744319 110.90975629 401.31125139 110.90035552 398.8944931 110.89104462 C397.14467209 110.89521735 395.39485379 110.90069454 393.64504051 110.90736443 C388.83585918 110.92184548 384.02684884 110.91756601 379.21765804 110.91019762 C374.03148975 110.90547488 368.84535893 110.91796781 363.65920258 110.92821503 C353.49920051 110.9454254 343.33926024 110.94623847 333.17924738 110.94100212 C324.9233325 110.93696368 316.66743591 110.9384001 308.41152191 110.94375038 C307.23731402 110.9444988 306.06310613 110.94524723 304.85331619 110.94601833 C302.46807177 110.94754977 300.08282736 110.94908812 297.69758296 110.95063329 C275.32154299 110.96436621 252.94553796 110.95891488 230.56949878 110.94744808 C210.08794306 110.93751286 189.60647765 110.95046 169.12493587 110.97438227 C148.10421685 110.99874974 127.08353994 111.00838706 106.06280708 111.00172955 C94.25730641 110.99823235 82.45187521 111.00050247 70.64638519 111.01798058 C60.59763744 111.03267306 50.5490081 111.03337663 40.50026274 111.01590966 C35.37142866 111.00737329 30.24280641 111.00531433 25.11398315 111.02056122 C20.42109682 111.03433973 15.72860514 111.02973372 11.03574204 111.01032198 C9.33596165 111.0065406 7.63615016 111.00954506 5.93639731 111.01993363 C3.62899209 111.03303585 1.32296269 111.02158236 -0.98438263 111.00393581 C-2.26686323 111.00382848 -3.54934383 111.00372114 -4.87068748 111.00361055 C-8.97214314 110.41010629 -11.12103559 109.08361407 -14.32767487 106.50336456 C-17.63310289 101.67186358 -17.76350997 97.4090104 -17.7317276 91.76337433 C-17.73859085 90.90567444 -17.7454541 90.04797455 -17.75252533 89.16428375 C-17.77076354 86.34094236 -17.76696009 83.51815824 -17.76126862 80.69477081 C-17.76583185 78.72471181 -17.77113785 76.75465441 -17.77715302 74.7845993 C-17.78607828 70.65978266 -17.78366762 66.53515969 -17.77371979 62.41034698 C-17.76223109 57.13327505 -17.78244319 51.85687238 -17.81163692 46.57988834 C-17.83001276 42.51257352 -17.82970369 38.44541867 -17.8239994 34.37807274 C-17.82384636 32.43287912 -17.82987684 30.48767454 -17.84229088 28.54252052 C-17.85722514 25.81884051 -17.84650615 23.09639171 -17.82938385 20.37274933 C-17.83905182 19.5751268 -17.84871979 18.77750427 -17.85868073 17.95571136 C-17.78514278 12.34875334 -16.6679687 9.05800623 -13.32767487 4.50336456 C-8.79997639 0.85178412 -5.7759173 0.00293169 0 0 Z " fill="#FBFCFB" transform="translate(304.32767486572266,297.4966354370117)"/>
<path d="M0 0 C0.98689314 0.00037972 1.97378628 0.00075944 2.99058527 0.00115067 C4.69172718 -0.00183591 4.69172718 -0.00183591 6.4272356 -0.00488281 C8.31970364 -0.00051355 8.31970364 -0.00051355 10.25040334 0.00394398 C11.59182673 0.00350839 12.93325002 0.00263372 14.27467287 0.00135481 C17.97793577 -0.00089266 21.68117003 0.00313456 25.38442928 0.00813287 C29.37149736 0.01243359 33.3585637 0.01099122 37.34563345 0.0102306 C44.25919188 0.00970512 51.17274091 0.01285439 58.08629698 0.01846844 C68.08225573 0.02658025 78.07820991 0.02919833 88.0741716 0.03045643 C104.29022095 0.03264745 120.50626529 0.0393089 136.72231191 0.04875904 C152.47882207 0.05793186 168.23533087 0.06501333 183.99184316 0.06926686 C184.962354 0.06952958 185.93286484 0.0697923 186.9327851 0.07006299 C191.80133762 0.07136798 196.66989014 0.0726317 201.53844267 0.07387489 C241.95626264 0.08424907 282.37407695 0.10194286 322.79189199 0.1241985 C322.79189199 5.4041985 322.79189199 10.6841985 322.79189199 16.1241985 C215.21189199 16.1241985 107.63189199 16.1241985 -3.20810801 16.1241985 C-3.20810801 0.18044506 -3.20810801 0.18044506 0 0 Z " fill="#F3F5F3" transform="translate(378.20810800790787,250.8758015036583)"/>
<path d="M0 0 C0 26.07 0 52.14 0 79 C-5.28 80.98 -10.56 82.96 -16 85 C-20.60503372 88.18289095 -22.28992775 89.52536158 -24.6796875 94.48828125 C-27.11047518 98.8459268 -30.26551272 99.84600938 -34.875 101.25 C-36.26925694 101.71044107 -37.66250707 102.17394305 -39.0546875 102.640625 C-39.72209961 102.85912109 -40.38951172 103.07761719 -41.07714844 103.30273438 C-43.83369198 104.3023139 -46.38836133 105.67469083 -49 107 C-49.66 107 -50.32 107 -51 107 C-51 99.08 -51 91.16 -51 83 C-49.36289062 82.16855469 -47.72578125 81.33710937 -46.0390625 80.48046875 C-43.90083285 79.38321933 -41.76282337 78.28554079 -39.625 77.1875 C-38.00464844 76.36668945 -38.00464844 76.36668945 -36.3515625 75.52929688 C-35.3203125 74.99755859 -34.2890625 74.46582031 -33.2265625 73.91796875 C-32.27346191 73.43094482 -31.32036133 72.9439209 -30.33837891 72.44213867 C-27.74251352 71.06554428 -27.74251352 71.06554428 -26 68 C-25.68521423 66.04785375 -25.68521423 66.04785375 -25.75 64 C-25.74484375 63.319375 -25.7396875 62.63875 -25.734375 61.9375 C-25.90082397 59.67583993 -25.90082397 59.67583993 -28 57 C-31.9444702 55.58661413 -34.36955687 55.92971398 -38.05078125 57.65234375 C-39.47989674 58.39791185 -40.90042031 59.16014949 -42.3125 59.9375 C-49.96953255 64 -49.96953255 64 -51 64 C-51 50.8 -51 37.6 -51 24 C-36.86073418 16.14485232 -22.64652096 8.76914131 -7.98925781 1.93286133 C-3.86757393 0 -3.86757393 0 0 0 Z " fill="#F9FAFA" transform="translate(567,539)"/>
<path d="M0 0 C3.25228486 0.81307121 5.5372133 1.64442527 8.47729492 3.1171875 C9.35467819 3.55434082 10.23206146 3.99149414 11.1360321 4.44189453 C12.54402824 5.15128174 12.54402824 5.15128174 13.98046875 5.875 C14.94906326 6.35952637 15.91765778 6.84405273 16.91560364 7.34326172 C18.95990344 8.36692094 21.00323168 9.39252238 23.0456543 10.41992188 C26.18374148 11.99810979 29.32499517 13.56984702 32.46679688 15.140625 C34.45071031 16.13503873 36.43444068 17.12981782 38.41796875 18.125 C39.36270554 18.5979248 40.30744232 19.07084961 41.2808075 19.55810547 C42.14873428 19.99525879 43.01666107 20.43241211 43.91088867 20.8828125 C44.67825851 21.26840332 45.44562836 21.65399414 46.23625183 22.05126953 C48 23 48 23 49 24 C49.08868299 26.95705321 49.11520296 29.89065056 49.09765625 32.84765625 C49.0962413 33.7340831 49.09482635 34.62050995 49.09336853 35.53379822 C49.08775215 38.37673254 49.07519691 41.21958931 49.0625 44.0625 C49.05748711 45.98502491 49.05292384 47.90755104 49.04882812 49.83007812 C49.03777741 54.55341549 49.02050183 59.27669458 49 64 C48.01 63.4946875 47.02 62.989375 46 62.46875 C44.6670737 61.81167366 43.33371695 61.15547 42 60.5 C41.35160156 60.16613281 40.70320313 59.83226562 40.03515625 59.48828125 C35.11825605 57.10285442 31.46506638 56.51709543 26 57 C23.34343968 59.15845526 23.07095411 60.58314463 22.5 63.9375 C23.14761401 67.9041358 24.9473691 69.60525614 28 72 C31.14369913 73.92438738 34.39645244 75.59331592 37.6875 77.25 C38.55439453 77.69601562 39.42128906 78.14203125 40.31445312 78.6015625 C43.20142275 80.08436402 46.09714976 81.54857488 49 83 C49 90.92 49 98.84 49 107 C25.76954733 99.25651578 25.76954733 99.25651578 21.1875 91.1015625 C16.71714568 83.19021176 8.06639828 81.45702783 0 78 C0 52.26 0 26.52 0 0 Z " fill="#FBFCFC" transform="translate(452,539)"/>
<path d="M0 0 C16.5 0 33 0 50 0 C50 25.41 50 50.82 50 77 C45.73898778 75.57966259 42.06429508 74.1762992 38.0703125 72.2421875 C36.95188965 71.70239258 35.8334668 71.16259766 34.68115234 70.60644531 C33.50762207 70.03506836 32.3340918 69.46369141 31.125 68.875 C29.91235807 68.28725757 28.69962977 67.69969329 27.48681641 67.11230469 C20.76858471 63.85411954 14.05999068 60.57590531 7.375 57.25 C6.40071045 56.76635986 6.40071045 56.76635986 5.40673828 56.27294922 C1.12369792 54.12369792 1.12369792 54.12369792 0 53 C-0.09346915 51.34261557 -0.11744977 49.68125356 -0.11352539 48.02124023 C-0.11344986 46.96021591 -0.11337433 45.89919159 -0.11329651 44.80601501 C-0.10813522 43.651866 -0.10297394 42.49771698 -0.09765625 41.30859375 C-0.0962413 40.13361832 -0.09482635 38.95864288 -0.09336853 37.74806213 C-0.08774992 33.97784936 -0.07519426 30.20769496 -0.0625 26.4375 C-0.0574874 23.88867273 -0.05292408 21.33984453 -0.04882812 18.79101562 C-0.03862331 12.52730291 -0.01905152 6.26371716 0 0 Z " fill="#8EAED2" transform="translate(451,426)"/>
<path d="M0 0 C17.82 0 35.64 0 54 0 C54 18.48 54 36.96 54 56 C36.18 56 18.36 56 0 56 C0 37.52 0 19.04 0 0 Z " fill="#8FAED2" transform="translate(647,426)"/>
<path d="M0 0 C5.52906263 3.14978759 6.59388752 7.471414 8.25 13.25 C8.50523437 14.07113281 8.76046875 14.89226562 9.0234375 15.73828125 C10.55537006 20.82590992 11.4883313 25.71275675 12 31 C12.66 31 13.32 31 14 31 C14.020625 29.80375 14.04125 28.6075 14.0625 27.375 C14.51787133 23.77051146 15.46982773 21.98291277 18.125 19.5 C20.85563054 17.45202709 22.13615302 16.97652534 25.625 16.375 C29.55977027 17.10366116 31.22704577 18.1478185 34 21 C36.08633833 24.12950749 36.49649421 27.30762419 37 31 C38.51129033 26.6252122 39.94457188 22.2657604 41.13671875 17.79296875 C41.34079346 17.046521 41.54486816 16.30007324 41.75512695 15.53100586 C42.16189725 14.03417447 42.55544046 12.53367263 42.93432617 11.02954102 C44.27775408 6.15189 45.88642297 3.21878082 50 0 C52.79507516 -0.8999295 55.16016251 -0.69850841 58 0 C61 2 61 2 63 5 C63.92621705 10.9689543 62.39137995 15.31939034 60.2109375 20.86328125 C58.82423607 24.45528529 57.62532267 28.08856723 56.4375 31.75 C55.25481009 35.39501152 54.03988867 38.90934394 52.49609375 42.41796875 C50.54447198 47.09065063 49.30189801 51.86682516 48.0703125 56.77148438 C46.65179807 61.95559466 44.82797625 65.18387507 41 69 C38 69.6875 38 69.6875 35 69 C28.81788715 65.0257846 27.56409288 57.8418141 26 51 C26 49.68 26 48.36 26 47 C25.34 47 24.68 47 24 47 C23.9175 48.093125 23.835 49.18625 23.75 50.3125 C23.06634231 55.77199498 21.41334859 61.05679633 19 66 C15.83215384 68.11189744 13.77034621 68.36837409 10.03515625 68.65625 C6.80054362 67.61322712 5.56267323 64.85027325 4 62 C3.02249072 59.40755783 2.16176145 56.89691468 1.37890625 54.25 C1.03894875 53.14724731 1.03894875 53.14724731 0.69212341 52.0222168 C-0.02700659 49.68419005 -0.73292557 47.34244978 -1.4375 45 C-2.36906084 41.93607091 -3.30655559 38.87399123 -4.24609375 35.8125 C-4.4737291 35.06612274 -4.70136444 34.31974548 -4.93589783 33.55075073 C-6.76954759 27.5954317 -8.84301237 21.75977603 -11.046875 15.93017578 C-12.45429155 11.60337932 -12.65443371 8.50832114 -12 4 C-9.32366145 -0.57207836 -4.94961362 -1.25353343 0 0 Z " fill="#1A3D4E" transform="translate(460,315)"/>
<path d="M0 0 C4.4410814 3.24062931 7.55179882 6.75424449 10.625 11.3125 C11.47725985 12.54168887 12.33151825 13.76949383 13.1875 14.99609375 C13.63609375 15.64046387 14.0846875 16.28483398 14.546875 16.94873047 C17.16577712 20.64564169 19.89747636 24.25789027 22.625 27.875 C23.15818848 28.58309814 23.69137695 29.29119629 24.24072266 30.02075195 C25.49243447 31.68154277 26.74600404 33.34093318 28 35 C28.75277638 30.70978663 29.08379192 26.56423582 29.17578125 22.20703125 C29.19962891 21.16482422 29.22347656 20.12261719 29.24804688 19.04882812 C29.29124493 16.87976233 29.32236933 14.71042455 29.34179688 12.54101562 C29.36951172 11.50267578 29.39722656 10.46433594 29.42578125 9.39453125 C29.44036377 8.45456299 29.45494629 7.51459473 29.4699707 6.54614258 C30.1493675 3.28247184 31.44553722 2.07384047 34 0 C36.73962288 -0.72771233 39.23214139 -0.57971577 42 0 C44.43119623 1.87015094 45.64069173 3.28138345 47 6 C47.11623273 7.78546199 47.16963166 9.5751674 47.19287109 11.36425781 C47.20893402 12.48592346 47.22499695 13.60758911 47.24154663 14.76324463 C47.2859447 19.9002502 47.32750913 25.03716651 47.35009766 30.17431641 C47.3634205 32.88462196 47.39124011 35.59417162 47.43212891 38.30419922 C47.49102565 42.20798656 47.50877086 46.11140859 47.5234375 50.015625 C47.54610687 51.2251886 47.56877625 52.4347522 47.59213257 53.68096924 C47.56855712 63.06366256 47.56855712 63.06366256 44.70556641 66.76074219 C41.80145734 69.16432352 39.90752972 69.96388838 36.1015625 69.62890625 C28.49842429 67.35361768 23.85125903 59.36340846 19.453125 53.2890625 C15.29099928 47.60496544 10.59960021 42.33037781 6 37 C5.98541748 37.73114014 5.97083496 38.46228027 5.95581055 39.21557617 C5.8811709 42.54007371 5.78456199 45.86358467 5.6875 49.1875 C5.66494141 50.33798828 5.64238281 51.48847656 5.61914062 52.67382812 C5.58369141 53.78564453 5.54824219 54.89746094 5.51171875 56.04296875 C5.48553467 57.06414795 5.45935059 58.08532715 5.43237305 59.13745117 C4.93860581 62.40646353 3.91654723 64.32840459 2 67 C-0.95040766 69.06528536 -3.44648605 69.6066975 -7 69 C-9.55546129 67.35536553 -10.56409419 66.59319384 -12 64 C-12.7692752 59.51601534 -12.70012917 55.06749202 -12.6640625 50.52734375 C-12.66884613 49.21214249 -12.67362976 47.89694122 -12.67855835 46.54188538 C-12.68591405 43.76354482 -12.67526677 40.98601023 -12.65185547 38.20776367 C-12.62333792 34.65070838 -12.63979475 31.09553692 -12.66971779 27.53855038 C-12.69214969 24.13883115 -12.6764371 20.73961648 -12.6640625 17.33984375 C-12.67418365 16.06374741 -12.68430481 14.78765106 -12.69473267 13.47288513 C-12.67897186 12.2880806 -12.66321106 11.10327606 -12.64697266 9.88256836 C-12.64299469 8.84063828 -12.63901672 7.79870819 -12.63491821 6.72520447 C-11.1507295 0.35474976 -5.85287154 -0.92413761 0 0 Z " fill="#1C3E4D" transform="translate(330,315)"/>
<path d="M0 0 C17.49 0 34.98 0 53 0 C53 18.48 53 36.96 53 56 C35.51 56 18.02 56 0 56 C0 37.52 0 19.04 0 0 Z " fill="#90AED4" transform="translate(317,426)"/>
<path d="M0 0 C17.49 0 34.98 0 53 0 C53 18.48 53 36.96 53 56 C35.51 56 18.02 56 0 56 C0 37.52 0 19.04 0 0 Z " fill="#8DADD0" transform="translate(384,426)"/>
<path d="M0 0 C17.82 0 35.64 0 54 0 C54 17.82 54 35.64 54 54 C36.18 54 18.36 54 0 54 C0 36.18 0 18.36 0 0 Z " fill="#FAFBFA" transform="translate(647,700)"/>
<path d="M0 0 C1.40897804 0.00333092 1.40897804 0.00333092 2.84642029 0.00672913 C4.4603064 0.0069104 4.4603064 0.0069104 6.10679626 0.00709534 C7.81567017 0.01476929 7.81567017 0.01476929 9.55906677 0.02259827 C11.1203833 0.02410889 11.1203833 0.02410889 12.71324158 0.02565002 C16.61889236 0.03090051 20.52452749 0.04486163 24.43016052 0.05775452 C37.51672302 0.08869202 37.51672302 0.08869202 50.86766052 0.12025452 C50.86766052 17.94025452 50.86766052 35.76025452 50.86766052 54.12025452 C33.04766052 54.12025452 15.22766052 54.12025452 -3.13233948 54.12025452 C-3.15296448 45.39587952 -3.17358948 36.67150452 -3.19483948 27.68275452 C-3.20394348 24.92488586 -3.21304749 22.16701721 -3.22242737 19.32557678 C-3.22534632 17.15427194 -3.22789492 14.98296655 -3.22999573 12.81166077 C-3.23511169 11.6724115 -3.24022766 10.53316223 -3.24549866 9.35939026 C-3.24561951 8.28346619 -3.24574036 7.20754211 -3.24586487 6.09901428 C-3.24808548 5.15969559 -3.25030609 4.22037689 -3.25259399 3.25259399 C-3.08984169 0.36668864 -2.88590536 0.1627523 0 0 Z " fill="#F7F8F8" transform="translate(319.13233947753906,699.8797454833984)"/>
<path d="M0 0 C17.16 0 34.32 0 52 0 C52 18.48 52 36.96 52 56 C34.84 56 17.68 56 0 56 C0 37.52 0 19.04 0 0 Z " fill="#8DACD3" transform="translate(581,426)"/>
<path d="M0 0 C17.82 0 35.64 0 54 0 C54 17.49 54 34.98 54 53 C36.18 53 18.36 53 0 53 C0 35.51 0 18.02 0 0 Z " fill="#FBFCFC" transform="translate(647,633)"/>
<path d="M0 0 C17.82 0 35.64 0 54 0 C54 17.49 54 34.98 54 53 C36.18 53 18.36 53 0 53 C0 35.51 0 18.02 0 0 Z " fill="#FBFDFD" transform="translate(647,565)"/>
<path d="M0 0 C17.82 0 35.64 0 54 0 C54 17.49 54 34.98 54 53 C36.18 53 18.36 53 0 53 C0 35.51 0 18.02 0 0 Z " fill="#FDFDFD" transform="translate(647,497)"/>
<path d="M0 0 C17.49 0 34.98 0 53 0 C53 17.49 53 34.98 53 53 C35.51 53 18.02 53 0 53 C0 35.51 0 18.02 0 0 Z " fill="#F9FBFB" transform="translate(384,633)"/>
<path d="M0 0 C17.49 0 34.98 0 53 0 C53 17.49 53 34.98 53 53 C35.51 53 18.02 53 0 53 C0 35.51 0 18.02 0 0 Z " fill="#FBFCFB" transform="translate(317,565)"/>
<path d="M0 0 C17.49 0 34.98 0 53 0 C53 17.49 53 34.98 53 53 C35.51 53 18.02 53 0 53 C0 35.51 0 18.02 0 0 Z " fill="#FCFDFD" transform="translate(317,497)"/>
<path d="M0 0 C17.16 0 34.32 0 52 0 C52 17.82 52 35.64 52 54 C34.84 54 17.68 54 0 54 C0 36.18 0 18.36 0 0 Z " fill="#90ADD2" transform="translate(581,700)"/>
<path d="M0 0 C17.16 0 34.32 0 52 0 C52 17.82 52 35.64 52 54 C34.84 54 17.68 54 0 54 C0 36.18 0 18.36 0 0 Z " fill="#FAFBFA" transform="translate(384,700)"/>
<path d="M0 0 C17.49 0 34.98 0 53 0 C53 17.16 53 34.32 53 52 C35.51 52 18.02 52 0 52 C0 34.84 0 17.68 0 0 Z " fill="#FDFDFD" transform="translate(317,633)"/>
<path d="M0 0 C17.16 0 34.32 0 52 0 C52 17.49 52 34.98 52 53 C34.84 53 17.68 53 0 53 C0 35.51 0 18.02 0 0 Z " fill="#FAFBFA" transform="translate(581,633)"/>
<path d="M0 0 C16.83 0 33.66 0 51 0 C51 17.49 51 34.98 51 53 C34.17 53 17.34 53 0 53 C0 35.51 0 18.02 0 0 Z " fill="#FBFCFB" transform="translate(516,701)"/>
<path d="M0 0 C16.5 0 33 0 50 0 C50 17.49 50 34.98 50 53 C33.5 53 17 53 0 53 C0 35.51 0 18.02 0 0 Z " fill="#91B0D3" transform="translate(451,701)"/>
<path d="M0 0 C16.83 0 33.66 0 51 0 C51 11.22 51 22.44 51 34 C48.03 33.01 45.06 32.02 42 31 C36.38359753 30.49703858 32.72441086 30.85039276 28 34 C24.71305238 36.85821532 23.25671432 38.35073157 22.5859375 42.66015625 C22.38762837 49.35759629 23.49961334 52.96381619 27.75 58.125 C28.1625 58.74375 28.575 59.3625 29 60 C28 63 28 63 24.82421875 64.83203125 C23.45023195 65.50236623 22.07103428 66.16209888 20.6875 66.8125 C19.33709973 67.46455419 17.98684353 68.11690683 16.63671875 68.76953125 C15.10660156 69.50558594 13.57648437 70.24164063 12 71 C8.04 72.98 4.08 74.96 0 77 C0 51.59 0 26.18 0 0 Z " fill="#8FAED2" transform="translate(516,426)"/>
<path d="M0 0 C0.81360992 0.01012115 1.62721985 0.02024231 2.46548462 0.03067017 C3.31124054 0.02588654 4.15699646 0.02110291 5.02838135 0.01617432 C6.81537742 0.01277624 8.60243572 0.02197241 10.38931274 0.0428772 C13.11404472 0.06958074 15.83463285 0.04316407 18.55923462 0.01113892 C20.29882699 0.01444434 22.0384168 0.02085331 23.77798462 0.03067017 C24.58754608 0.02054901 25.39710754 0.01042786 26.23120117 0 C30.33110324 0.0841985 32.99953919 0.46797759 36.27651978 3.04483032 C38.75454712 5.69473267 38.75454712 5.69473267 39.37954712 8.75723267 C38.60734108 12.38660104 37.66603614 13.43157522 34.75454712 15.69473267 C31.73013306 16.14883423 31.73013306 16.14883423 28.23892212 16.08535767 C26.98853149 16.07246704 25.73814087 16.05957642 24.44985962 16.04629517 C22.49692993 15.99602173 22.49692993 15.99602173 20.50454712 15.94473267 C19.18712524 15.92668579 17.86970337 15.90863892 16.51235962 15.89004517 C13.25902404 15.84289538 10.00715087 15.7770931 6.75454712 15.69473267 C6.75454712 19.32473267 6.75454712 22.95473267 6.75454712 26.69473267 C8.28466431 26.63672485 9.81478149 26.57871704 11.39126587 26.51895142 C13.40816242 26.47204684 15.425092 26.42654744 17.44204712 26.38223267 C18.44944946 26.34033813 19.45685181 26.2984436 20.49478149 26.25527954 C27.98955904 26.13160334 27.98955904 26.13160334 31.92251587 29.02676392 C33.75454712 31.69473267 33.75454712 31.69473267 34.37954712 34.69473267 C33.50094483 38.91202368 32.23362632 40.13368423 28.75454712 42.69473267 C24.96537434 43.30905155 21.26785073 43.16633518 17.44204712 43.00723267 C16.41530884 42.98467407 15.38857056 42.96211548 14.33071899 42.93887329 C11.80470046 42.88012867 9.27943487 42.79045293 6.75454712 42.69473267 C6.75454712 45.99473267 6.75454712 49.29473267 6.75454712 52.69473267 C7.88884155 52.66331177 7.88884155 52.66331177 9.04605103 52.6312561 C12.49041312 52.54782682 15.93456219 52.49598643 19.37954712 52.44473267 C21.16425415 52.39445923 21.16425415 52.39445923 22.98501587 52.34317017 C32.87969078 52.23261514 32.87969078 52.23261514 36.52017212 54.49551392 C38.75454712 56.69473267 38.75454712 56.69473267 39.87954712 60.13223267 C39.72971419 64.40247104 38.77542772 65.76016294 35.75454712 68.69473267 C32.45916657 70.34242294 28.7927965 69.90076697 25.16860962 69.93301392 C23.88861588 69.94512154 23.88861588 69.94512154 22.58276367 69.95747375 C20.77546216 69.97131415 18.96813452 69.98203651 17.16079712 69.98989868 C14.39727299 70.00712219 11.63494196 70.05100858 8.87173462 70.09512329 C7.11653509 70.10524933 5.36132539 70.11376571 3.60610962 70.12051392 C2.77995148 70.138022 1.95379333 70.15553009 1.1026001 70.17356873 C-4.62628581 70.15191611 -4.62628581 70.15191611 -7.73617554 67.85562134 C-10.21477256 64.30692153 -10.38060242 61.41368137 -10.42245483 57.20108032 C-10.43529007 56.07626251 -10.44812531 54.9514447 -10.46134949 53.7925415 C-10.46873642 52.57690521 -10.47612335 51.36126892 -10.48373413 50.10879517 C-10.49180588 48.85972382 -10.49987762 47.61065247 -10.50819397 46.32373047 C-10.52203296 43.67913097 -10.53305032 41.03465606 -10.5406189 38.39004517 C-10.55168607 35.00826162 -10.58609602 31.62713558 -10.6257906 28.24558449 C-10.65826872 25.01255342 -10.662736 21.77946451 -10.67123413 18.54629517 C-10.68874222 17.33470734 -10.70625031 16.12311951 -10.72428894 14.87481689 C-10.72136337 13.74369476 -10.71843781 12.61257263 -10.71542358 11.44717407 C-10.72128983 10.45472687 -10.72715607 9.46227966 -10.73320007 8.4397583 C-9.60046061 2.06473677 -6.20042183 0.12839096 0 0 Z " fill="#1D3E4F" transform="translate(402.2454528808594,314.3052673339844)"/>
<path d="M0 0 C0.80232056 0.00233139 1.60464111 0.00466278 2.43127441 0.00706482 C4.12242309 0.01677969 5.81354031 0.038515 7.50439453 0.0715332 C10.08545404 0.12093496 12.66460406 0.13301611 15.24609375 0.13867188 C16.89324933 0.15275997 18.54038845 0.16896514 20.1875 0.1875 C21.3392572 0.19554405 21.3392572 0.19554405 22.51428223 0.20375061 C26.60465075 0.2940429 29.98245081 0.55600237 33.59375 2.55859375 C35.92124345 6.04983392 36.09674316 7.45081626 35.59375 11.55859375 C33.7266509 13.86134931 32.23727259 15.23683246 29.59375 16.55859375 C27.6343896 16.6436958 25.67212206 16.66577031 23.7109375 16.65625 C22.54433594 16.65302734 21.37773438 16.64980469 20.17578125 16.64648438 C18.95246094 16.63810547 17.72914063 16.62972656 16.46875 16.62109375 C15.23769531 16.61658203 14.00664063 16.61207031 12.73828125 16.60742188 C9.69005608 16.59560705 6.64192686 16.57913403 3.59375 16.55859375 C3.59375 19.85859375 3.59375 23.15859375 3.59375 26.55859375 C5.05167969 26.52378906 6.50960937 26.48898437 8.01171875 26.453125 C9.93488429 26.42498111 11.85806232 26.3976816 13.78125 26.37109375 C14.74095703 26.34595703 15.70066406 26.32082031 16.68945312 26.29492188 C25.66791443 26.20171985 25.66791443 26.20171985 29.59375 29.55859375 C31.01416821 32.39943016 30.90827272 34.41336653 30.59375 37.55859375 C28.7266509 39.86134931 27.23727259 41.23683246 24.59375 42.55859375 C22.99927536 42.64259904 21.40134455 42.66586842 19.8046875 42.65625 C18.86367188 42.65302734 17.92265625 42.64980469 16.953125 42.64648438 C15.96828125 42.63810547 14.9834375 42.62972656 13.96875 42.62109375 C12.47988281 42.61432617 12.47988281 42.61432617 10.9609375 42.60742188 C8.50518278 42.59561536 6.04945894 42.57767957 3.59375 42.55859375 C3.59375 46.18859375 3.59375 49.81859375 3.59375 53.55859375 C4.38547607 53.53764648 5.17720215 53.51669922 5.99291992 53.49511719 C9.58890018 53.41183908 13.18467736 53.35989484 16.78125 53.30859375 C18.02712891 53.27507812 19.27300781 53.2415625 20.55664062 53.20703125 C21.75869141 53.19414062 22.96074219 53.18125 24.19921875 53.16796875 C25.30418701 53.14702148 26.40915527 53.12607422 27.54760742 53.10449219 C31.30440967 53.66453484 32.94510837 54.88057997 35.59375 57.55859375 C36.34206873 61.46648043 35.94034888 63.0207679 33.78125 66.37109375 C28.74030725 71.4120365 19.9907157 69.8603718 13.26123047 69.90869141 C11.56968434 69.92525927 9.87820847 69.95256065 8.18701172 69.99072266 C5.74149472 70.04557627 3.29761231 70.0673741 0.8515625 70.08203125 C0.09932404 70.10470062 -0.65291443 70.12737 -1.427948 70.15072632 C-5.41932131 70.13471988 -7.19613705 69.7254267 -10.35986328 67.21337891 C-13.25117673 63.46246714 -13.53830109 60.75872167 -13.59912109 56.15673828 C-13.61518402 55.05194122 -13.63124695 53.94714417 -13.64779663 52.80886841 C-13.69225094 47.76630284 -13.73329311 42.7238679 -13.75634766 37.68115234 C-13.77292747 35.01960519 -13.80024356 32.35810292 -13.83837891 29.69677734 C-13.89305428 25.86141845 -13.91500676 22.027102 -13.9296875 18.19140625 C-13.95235687 17.0016922 -13.97502625 15.81197815 -13.99838257 14.58621216 C-13.97760244 6.48497412 -13.97760244 6.48497412 -11.39892578 2.30395508 C-7.5530321 0.06098772 -4.33050892 -0.11015978 0 0 Z " fill="#1E3D4F" transform="translate(659.40625,314.44140625)"/>
<path d="M0 0 C1.8125 2.0625 1.8125 2.0625 2.4375 4.375 C1.52850634 8.28367273 -0.69672116 10.97571337 -3.1875 14.0625 C-5.70427157 13.64303807 -7.81817554 13.26401936 -10.0703125 12.03515625 C-12.49697762 10.92032301 -14.1569005 10.82615118 -16.8125 10.875 C-17.97652344 10.88466797 -17.97652344 10.88466797 -19.1640625 10.89453125 C-21.2562268 10.94199367 -21.2562268 10.94199367 -23.1875 12.0625 C-23.1875 14.0425 -23.1875 16.0225 -23.1875 18.0625 C-21.95 18.43375 -20.7125 18.805 -19.4375 19.1875 C-2.01955557 25.10354748 -2.01955557 25.10354748 2.8828125 32.66015625 C5.3159585 38.9474873 4.95493324 46.34598158 2.25 52.5 C-1.40543998 58.60962229 -6.33003911 62.27501019 -13.1875 64.0625 C-20.78389975 64.91840552 -30.01673155 65.57393575 -36.671875 61.33203125 C-40.0295654 58.51953285 -42.71135702 55.96707194 -43.8125 51.5625 C-42.84919409 47.70927638 -41.0933526 45.71566977 -38.1875 43.0625 C-34.47157056 42.98171893 -32.17803863 44.06688026 -28.8125 45.625 C-24.47635585 47.34450544 -21.80481553 47.37553834 -17.1875 47.0625 C-16.1975 46.5675 -16.1975 46.5675 -15.1875 46.0625 C-15.1875 43.7525 -15.1875 41.4425 -15.1875 39.0625 C-16.26128906 38.77117187 -17.33507812 38.47984375 -18.44140625 38.1796875 C-35.11226032 33.4610047 -35.11226032 33.4610047 -39.2578125 26.18359375 C-42.11729819 19.60162445 -41.94412948 13.61499351 -39.625 6.9375 C-36.99101872 0.88771967 -33.23664358 -2.44680758 -27.375 -5.3125 C-17.28055805 -7.29180234 -8.77712726 -5.33511657 0 0 Z " fill="#1C3D4F" transform="translate(570.1875,319.9375)"/>
<path d="M0 0 C17.49 0 34.98 0 53 0 C53 7.92 53 15.84 53 24 C51.02 24.99 51.02 24.99 49 26 C48.29875 25.54625 47.5975 25.0925 46.875 24.625 C42.64374012 22.23341833 38.7565805 22.30744188 34 23 C29.88377006 25.05811497 27.66361072 26.7360608 26 31 C25.08899441 38.51049955 25.65744585 43.81515015 30 50 C30.33 50.99 30.66 51.98 31 53 C20.77 53 10.54 53 0 53 C0 35.51 0 18.02 0 0 Z " fill="#8FAED0" transform="translate(384,565)"/>
<path d="M0 0 C8.91 0 17.82 0 27 0 C27 17.82 27 35.64 27 54 C9.84 54 -7.32 54 -25 54 C-25 46.74 -25 39.48 -25 32 C-21 32 -21 32 -17.75 33.0625 C-11.97857346 34.50535664 -7.98138595 34.00938529 -2.6875 31.3125 C1.58668095 27.63471639 2.84255264 24.65319724 3.375 19.0625 C3.18115467 14.01282911 1.62429507 9.62429507 -2 6 C-1.44444444 1.44444444 -1.44444444 1.44444444 0 0 Z " fill="#8EADD0" transform="translate(606,497)"/>
<path d="M0 0 C6.868125 -0.061875 6.868125 -0.061875 13.875 -0.125 C16.0403833 -0.15231201 16.0403833 -0.15231201 18.24951172 -0.18017578 C19.38146973 -0.1851709 20.51342773 -0.19016602 21.6796875 -0.1953125 C22.84226074 -0.20578613 24.00483398 -0.21625977 25.20263672 -0.22705078 C28 0 28 0 30 2 C29.78866508 4.95868892 28.8429706 6.19033866 26.9375 8.5 C23.72881831 13.09052271 24.4000502 18.66629991 25 24 C26.20459041 27.61377122 27.25789646 29.30427793 30 31.875 C36.44635872 34.29238452 42.76326837 33.60903273 49 31 C49.99 31 50.98 31 52 31 C52 38.26 52 45.52 52 53 C34.84 53 17.68 53 0 53 C0 35.51 0 18.02 0 0 Z " fill="#92B1D3" transform="translate(384,497)"/>
<path d="M0 0 C1.12591553 0.00523682 2.25183105 0.01047363 3.41186523 0.01586914 C4.50571533 0.0183667 5.59956543 0.02086426 6.7265625 0.0234375 C8.12704834 0.0325415 9.52753418 0.04164551 10.97045898 0.05102539 C17.62202148 0.08196289 17.62202148 0.08196289 24.40795898 0.11352539 C24.40795898 17.60352539 24.40795898 35.09352539 24.40795898 53.11352539 C7.57795898 53.11352539 -9.25204102 53.11352539 -26.59204102 53.11352539 C-26.59204102 45.52352539 -26.59204102 37.93352539 -26.59204102 30.11352539 C-21.59204102 31.11352539 -21.59204102 31.11352539 -19.61547852 32.15258789 C-15.55255491 34.08208443 -10.97166274 33.62130762 -6.59204102 33.11352539 C-2.772259 31.34005517 -1.10867225 29.85403016 1.28295898 26.42602539 C2.72427413 22.18215303 3.13915453 18.54838531 2.40795898 14.11352539 C0.74539235 11.01771166 -0.7986273 8.82486182 -3.40454102 6.48852539 C-3.79641602 6.03477539 -4.18829102 5.58102539 -4.59204102 5.11352539 C-4.16463406 1.48056626 -3.77988996 0.16555042 0 0 Z " fill="#8EACD1" transform="translate(608.592041015625,564.886474609375)"/>
<path d="M0 0 C1.11568359 -0.01933594 1.11568359 -0.01933594 2.25390625 -0.0390625 C5.69486126 1.00738178 6.5820208 2.54725117 8.4375 5.625 C8.99036487 9.21894796 8.90287162 12.76580177 8.828125 16.39453125 C8.82246521 17.43067062 8.81680542 18.46681 8.81097412 19.53434753 C8.78862666 22.83587308 8.73843178 26.13630381 8.6875 29.4375 C8.66743296 31.67902076 8.64918255 33.92055857 8.6328125 36.16210938 C8.58876733 41.6501116 8.52187118 47.13747757 8.4375 52.625 C9.13834717 52.60405273 9.83919434 52.58310547 10.5612793 52.56152344 C13.74903919 52.47816952 16.93656952 52.42627861 20.125 52.375 C21.22779297 52.34148437 22.33058594 52.30796875 23.46679688 52.2734375 C31.59577881 52.17520207 31.59577881 52.17520207 35.67578125 54.35546875 C37.65099283 56.90003179 38.06678729 58.0038006 37.9375 61.1875 C37.9271875 61.95191406 37.916875 62.71632813 37.90625 63.50390625 C37.33099726 66.10692489 36.52585141 67.00455751 34.4375 68.625 C28.79580153 70.50556616 22.44967621 69.93136101 16.53222656 69.97509766 C14.8891789 69.99166457 13.24620354 70.01896479 11.60351562 70.05712891 C9.22748672 70.11199704 6.85314017 70.13378218 4.4765625 70.1484375 C3.74619781 70.17110687 3.01583313 70.19377625 2.26333618 70.21713257 C-1.67819075 70.20086783 -3.38368656 69.76764092 -6.50244141 67.27978516 C-9.41100032 63.53154273 -9.69446078 60.83196144 -9.75537109 56.22314453 C-9.77143402 55.11834747 -9.78749695 54.01355042 -9.80404663 52.87527466 C-9.84850094 47.83270909 -9.88954311 42.79027415 -9.91259766 37.74755859 C-9.92917747 35.08601144 -9.95649356 32.42450917 -9.99462891 29.76318359 C-10.04930428 25.9278247 -10.07125676 22.09350825 -10.0859375 18.2578125 C-10.10860687 17.06809845 -10.13127625 15.8783844 -10.15463257 14.65261841 C-10.13106704 5.46547548 -10.13106704 5.46547548 -7.17456055 2.37695312 C-4.491952 0.57768226 -3.19249011 -0.05552157 0 0 Z " fill="#234252" transform="translate(596.5625,314.375)"/>
<path d="M0 0 C1.65980075 2.13402954 3.09366665 4.17456057 4.375 6.5625 C6.31600561 9.47400841 7.87348371 10.45440579 11 12 C13.88296799 12.43443411 13.88296799 12.43443411 16.875 12.3125 C17.86242187 12.30863281 18.84984375 12.30476562 19.8671875 12.30078125 C23.70344342 12.0281406 23.70344342 12.0281406 30 10 C30 17.26 30 24.52 30 32 C13.17 32 -3.66 32 -21 32 C-21 25.07 -21 18.14 -21 11 C-17.87513122 9.35391711 -14.75011122 7.7081225 -11.625 6.0625 C-10.29082031 5.35963867 -10.29082031 5.35963867 -8.9296875 4.64257812 C-8.07890625 4.19462891 -7.228125 3.74667969 -6.3515625 3.28515625 C-5.56604004 2.87144775 -4.78051758 2.45773926 -3.97119141 2.03149414 C-2.65378141 1.34211376 -1.32990658 0.66495329 0 0 Z " fill="#8DADD1" transform="translate(537,654)"/>
<path d="M0 0 C7.68616839 2.34493273 14.7366185 5.55945087 22 9 C22 15.93 22 22.86 22 30 C5.5 30 -11 30 -28 30 C-28 22.74 -28 15.48 -28 8 C-26.02 8.66 -24.04 9.32 -22 10 C-14.90563675 10.86787374 -9.69896602 10.4196063 -4 6 C-2.41225203 4.06256945 -1.24535073 2.19181728 0 0 Z " fill="#90AFD2" transform="translate(479,656)"/>
<path d="M0 0 C0.66 0 1.32 0 2 0 C2 7.26 2 14.52 2 22 C-1.25875 23.546875 -4.5175 25.09375 -7.875 26.6875 C-14.69846181 29.93500589 -21.49600105 33.22778148 -28.24609375 36.625 C-29.42510254 37.21837158 -30.60411133 37.81174316 -31.81884766 38.4230957 C-34.12899489 39.5897927 -36.43730032 40.76014454 -38.74365234 41.93432617 C-40.31880615 42.73060425 -40.31880615 42.73060425 -41.92578125 43.54296875 C-42.85817627 44.01758545 -43.79057129 44.49220215 -44.7512207 44.98120117 C-47 46 -47 46 -49 46 C-49.23329086 42.77206203 -49.37467674 39.54628768 -49.5 36.3125 C-49.56703125 35.40048828 -49.6340625 34.48847656 -49.703125 33.54882812 C-49.78210615 30.83385119 -49.72328877 28.6210406 -49 26 C-46.69273435 23.56374519 -44.02887159 22.37106106 -41 21 C-39.59624883 20.23255295 -38.19648902 19.45776088 -36.80078125 18.67578125 C-35.30697079 17.88369963 -33.81077551 17.09610288 -32.3125 16.3125 C-31.5095752 15.8904126 -30.70665039 15.4683252 -29.87939453 15.03344727 C-22.53981879 11.21125136 -15.08684051 7.64032573 -7.59106445 4.13598633 C-6.74374756 3.73919678 -5.89643066 3.34240723 -5.0234375 2.93359375 C-4.26981934 2.58353271 -3.51620117 2.23347168 -2.73974609 1.87280273 C-1.01870988 1.12369331 -1.01870988 1.12369331 0 0 Z " fill="#F6F8F9" transform="translate(565,498)"/>
<path d="M0 0 C10.80386435 5.09932096 21.59553627 10.22429548 32.375 15.375 C33.44999756 15.88643555 34.52499512 16.39787109 35.63256836 16.92480469 C36.64843018 17.41110352 37.66429199 17.89740234 38.7109375 18.3984375 C39.61118652 18.82817871 40.51143555 19.25791992 41.43896484 19.70068359 C42.28410645 20.12945801 43.12924805 20.55823242 44 21 C44.92401611 21.44786865 45.84803223 21.8957373 46.80004883 22.35717773 C49 24 49 24 49.56762695 26.26831055 C49.54144287 27.13238525 49.51525879 27.99645996 49.48828125 28.88671875 C49.47216797 29.82451172 49.45605469 30.76230469 49.43945312 31.72851562 C49.37661133 33.19321289 49.37661133 33.19321289 49.3125 34.6875 C49.28994141 35.67556641 49.26738281 36.66363281 49.24414062 37.68164062 C49.18517988 40.12261559 49.10295048 42.56054868 49 45 C39.30563052 41.21413285 30.05535688 36.66652746 20.76879883 31.98730469 C18.28115029 30.7342083 15.79024423 29.48777382 13.29882812 28.2421875 C11.71595466 27.44829772 10.13326524 26.65404085 8.55078125 25.859375 C7.80613113 25.48649353 7.06148102 25.11361206 6.29426575 24.72943115 C1.11615295 22.11615295 1.11615295 22.11615295 0 21 C-0.08685603 19.43827255 -0.10702219 17.87270656 -0.09765625 16.30859375 C-0.09443359 15.36435547 -0.09121094 14.42011719 -0.08789062 13.44726562 C-0.07951172 12.45404297 -0.07113281 11.46082031 -0.0625 10.4375 C-0.05798828 9.44041016 -0.05347656 8.44332031 -0.04882812 7.41601562 C-0.03700007 4.94395151 -0.02051849 2.47200482 0 0 Z " fill="#F8FAFA" transform="translate(452,499)"/>
<path d="M0 0 C0 9.9 0 19.8 0 30 C-14.52 30 -29.04 30 -44 30 C-38.43995381 23.32794457 -38.43995381 23.32794457 -35.3125 20.75 C-32.04876748 17.97183221 -29.00998434 15.05159703 -26 12 C-25.15050781 11.15695312 -24.30101562 10.31390625 -23.42578125 9.4453125 C-21.92730589 7.93477212 -20.4588229 6.39293108 -19.04296875 4.8046875 C-12.64315093 -1.85112303 -10.79213086 0 0 0 Z " fill="#F4F7F7" transform="translate(359,252)"/>
<path d="M0 0 C1.9375 1 1.9375 1 3 3 C4.09930703 7.47051525 4.43187163 9.80035658 2.875 14.125 C-0.78268048 18.91419314 -7.60687591 20.802224 -13 23 C-13 23.66 -13 24.32 -13 25 C-13.639375 25.0825 -14.27875 25.165 -14.9375 25.25 C-18.36298622 26.08889458 -21.33028624 27.39253219 -24.5234375 28.8671875 C-27.65732927 30.30067112 -30.83246127 31.6424834 -34 33 C-34 26.73 -34 20.46 -34 14 C-29.34431638 11.35651862 -24.68745596 8.72169838 -20.00878906 6.12011719 C-18.33178039 5.18500346 -16.661168 4.23843063 -14.9921875 3.2890625 C-9.72555851 0.43286559 -6.01038647 -0.84356301 0 0 Z " fill="#8CAACE" transform="translate(550,570)"/>
<path d="M0 0 C3.15966797 1.19335938 3.15966797 1.19335938 6.4921875 2.84375 C7.08299103 3.13229858 7.67379456 3.42084717 8.28250122 3.71813965 C10.15230192 4.63447361 12.01353879 5.56686067 13.875 6.5 C15.14790507 7.12738349 16.42133813 7.75369695 17.6953125 8.37890625 C20.80429134 9.90505862 23.90114093 11.45269588 27 13 C27 19.6 27 26.2 27 33 C19.875 29.5625 19.875 29.5625 17.66748047 28.48266602 C13.78050289 26.63932989 10.32732656 25.47856727 6 25 C6.33 24.34 6.66 23.68 7 23 C5.78763672 22.56300781 5.78763672 22.56300781 4.55078125 22.1171875 C-6.84554307 17.74561798 -6.84554307 17.74561798 -10 12 C-10.83867249 8.02207633 -10.64479337 4.9919898 -8.375 1.5 C-5.28461741 -0.45182058 -3.62807042 -0.30238452 0 0 Z " fill="#89A9CE" transform="translate(474,570)"/>
<path d="M0 0 C0.99 0.495 0.99 0.495 2 1 C2 25.66666667 2 50.33333333 2 75 C1.01 75.495 1.01 75.495 0 76 C0 50.92 0 25.84 0 0 Z " fill="#9ABAD7" transform="translate(516,427)"/>
<path d="M0 0 C-0.25 1.875 -0.25 1.875 -1 4 C-2.31647119 4.69937532 -3.65022151 5.36729133 -5 6 C-6.0730756 9.2192268 -5.79946725 9.90206442 -5 13 C-5.33 13.66 -5.66 14.32 -6 15 C-7.87177634 12.89425162 -8.91509411 11.40330296 -9.5 8.625 C-8.48276375 3.2845097 -5.59170912 0 0 0 Z " fill="#2A404B" transform="translate(536,363)"/>
<path d="M0 0 C0.33 0 0.66 0 1 0 C1.04898438 1.05960938 1.09796875 2.11921875 1.1484375 3.2109375 C1.22346709 4.59898497 1.29901485 5.98700451 1.375 7.375 C1.4059375 8.07367187 1.436875 8.77234375 1.46875 9.4921875 C1.59499498 13.70185827 1.59499498 13.70185827 4 17 C2.02 17.99 2.02 17.99 0 19 C0 12.73 0 6.46 0 0 Z " fill="#93B3D1" transform="translate(516,584)"/>
<path d="M0 0 C7.625 1.75 7.625 1.75 11 4 C11 4.66 11 5.32 11 6 C9.5410574 5.52269162 8.08286504 5.04308958 6.625 4.5625 C5.81289063 4.29566406 5.00078125 4.02882813 4.1640625 3.75390625 C2 3 2 3 0 2 C0 1.34 0 0.68 0 0 Z " fill="#9CAFCC" transform="translate(469,586)"/>
<path d="M0 0 C0.33 0 0.66 0 1 0 C1 6.6 1 13.2 1 20 C-0.32 19.34 -1.64 18.68 -3 18 C-2.34 17.67 -1.68 17.34 -1 17 C-0.67 11.39 -0.34 5.78 0 0 Z " fill="#E4F5FB" transform="translate(500,563)"/>
<path d="M0 0 C0.66 0 1.32 0 2 0 C1 3 1 3 -1 4 C-1.40729228 6.32156597 -1.74438677 8.6568787 -2 11 C-2.66 11 -3.32 11 -4 11 C-4.35858439 7.14521782 -4.2754818 5.42240542 -2.125 2.125 C-1.42375 1.42375 -0.7225 0.7225 0 0 Z " fill="#334B57" transform="translate(478,595)"/>
<path d="M0 0 C1.21236328 0.02707031 1.21236328 0.02707031 2.44921875 0.0546875 C3.37154297 0.08949219 3.37154297 0.08949219 4.3125 0.125 C4.3125 0.455 4.3125 0.785 4.3125 1.125 C3.69761719 1.24617188 3.08273437 1.36734375 2.44921875 1.4921875 C1.64097656 1.65976562 0.83273437 1.82734375 0 2 C-0.80050781 2.16242188 -1.60101562 2.32484375 -2.42578125 2.4921875 C-4.94051118 3.06978999 -4.94051118 3.06978999 -7.6875 5.125 C-7.6875 4.135 -7.6875 3.145 -7.6875 2.125 C-4.48369983 -0.01086678 -3.66810033 -0.10632175 0 0 Z " fill="#3E525A" transform="translate(596.6875,314.875)"/>
<path d="M0 0 C0.99 0.33 1.98 0.66 3 1 C1.35 2.65 -0.3 4.3 -2 6 C-2.66 5.67 -3.32 5.34 -4 5 C-2.93453047 2.86906094 -1.70840281 1.63412443 0 0 Z " fill="#1E3D56" transform="translate(604,524)"/>
<path d="M0 0 C1.32 1.32 2.64 2.64 4 4 C3.01 4.33 2.02 4.66 1 5 C1 6.65 1 8.3 1 10 C0.67 10 0.34 10 0 10 C0 6.7 0 3.4 0 0 Z " fill="#DDEEF4" transform="translate(335,351)"/>
<path d="M0 0 C3 1 3 1 4 3 C4.13415472 5.6723621 4.04318541 8.32250488 4 11 C3.67 11 3.34 11 3 11 C0.85714286 3.57142857 0.85714286 3.57142857 0 0 Z " fill="#3D5462" transform="translate(519,317)"/>
</svg>
